#VRML V2.0 utf8
# Generated by VRML 2.0 driver of GEANT4


#---------- CAMERA
Viewpoint {
	position 0 0 244.949
}

#---------- SOLID: World:0
	Shape {
		appearance Appearance {
			material Material {
				diffuseColor 1 1 1
				transparency 0.7
			}
		}
		geometry IndexedFaceSet {
			coord Coordinate {
				point [
					-50 -50 -100,
					50 -50 -100,
					50 50 -100,
					-50 50 -100,
					-50 -50 100,
					50 -50 100,
					50 50 100,
					-50 50 100,
				]
			}
			coordIndex [
				0, 3, 2, 1, -1,
				4, 7, 3, 0, -1,
				7, 6, 2, 3, -1,
				6, 5, 1, 2, -1,
				5, 4, 0, 1, -1,
				4, 5, 6, 7, -1,
			]
			solid FALSE
		}
	}
#---------- SOLID: YSO_PV1:0
	Shape {
		appearance Appearance {
			material Material {
				diffuseColor 0 1 0
				transparency 0.7
			}
		}
		geometry IndexedFaceSet {
			coord Coordinate {
				point [
					-22.5 -22.5 -31.5,
					22.5 -22.5 -31.5,
					22.5 22.5 -31.5,
					-22.5 22.5 -31.5,
					-22.5 -22.5 -28.5,
					22.5 -22.5 -28.5,
					22.5 22.5 -28.5,
					-22.5 22.5 -28.5,
				]
			}
			coordIndex [
				0, 3, 2, 1, -1,
				4, 7, 3, 0, -1,
				7, 6, 2, 3, -1,
				6, 5, 1, 2, -1,
				5, 4, 0, 1, -1,
				4, 5, 6, 7, -1,
			]
			solid FALSE
		}
	}
#---------- SOLID: Si_PV1:0
	Shape {
		appearance Appearance {
			material Material {
				diffuseColor 0.8 0.8 0.8
				transparency 0.7
			}
		}
		geometry IndexedFaceSet {
			coord Coordinate {
				point [
					-22.5 -22.5 -28.5,
					22.5 -22.5 -28.5,
					22.5 22.5 -28.5,
					-22.5 22.5 -28.5,
					-22.5 -22.5 -28.499,
					22.5 -22.5 -28.499,
					22.5 22.5 -28.499,
					-22.5 22.5 -28.499,
				]
			}
			coordIndex [
				0, 3, 2, 1, -1,
				4, 7, 3, 0, -1,
				7, 6, 2, 3, -1,
				6, 5, 1, 2, -1,
				5, 4, 0, 1, -1,
				4, 5, 6, 7, -1,
			]
			solid FALSE
		}
	}
#---------- SOLID: FR4_PV1:0
	Shape {
		appearance Appearance {
			material Material {
				diffuseColor 1 0 0
				transparency 0.7
			}
		}
		geometry IndexedFaceSet {
			coord Coordinate {
				point [
					-22.5 -22.5 -28.499,
					22.5 -22.5 -28.499,
					22.5 22.5 -28.499,
					-22.5 22.5 -28.499,
					-22.5 -22.5 -26.899,
					22.5 -22.5 -26.899,
					22.5 22.5 -26.899,
					-22.5 22.5 -26.899,
				]
			}
			coordIndex [
				0, 3, 2, 1, -1,
				4, 7, 3, 0, -1,
				7, 6, 2, 3, -1,
				6, 5, 1, 2, -1,
				5, 4, 0, 1, -1,
				4, 5, 6, 7, -1,
			]
			solid FALSE
		}
	}
#---------- SOLID: YSO_PV2:1
	Shape {
		appearance Appearance {
			material Material {
				diffuseColor 0 1 0
				transparency 0.7
			}
		}
		geometry IndexedFaceSet {
			coord Coordinate {
				point [
					-22.5 -22.5 -6.5,
					22.5 -22.5 -6.5,
					22.5 22.5 -6.5,
					-22.5 22.5 -6.5,
					-22.5 -22.5 -3.5,
					22.5 -22.5 -3.5,
					22.5 22.5 -3.5,
					-22.5 22.5 -3.5,
				]
			}
			coordIndex [
				0, 3, 2, 1, -1,
				4, 7, 3, 0, -1,
				7, 6, 2, 3, -1,
				6, 5, 1, 2, -1,
				5, 4, 0, 1, -1,
				4, 5, 6, 7, -1,
			]
			solid FALSE
		}
	}
#---------- SOLID: Si_PV2:1
	Shape {
		appearance Appearance {
			material Material {
				diffuseColor 0.8 0.8 0.8
				transparency 0.7
			}
		}
		geometry IndexedFaceSet {
			coord Coordinate {
				point [
					-22.5 -22.5 -3.5,
					22.5 -22.5 -3.5,
					22.5 22.5 -3.5,
					-22.5 22.5 -3.5,
					-22.5 -22.5 -3.499,
					22.5 -22.5 -3.499,
					22.5 22.5 -3.499,
					-22.5 22.5 -3.499,
				]
			}
			coordIndex [
				0, 3, 2, 1, -1,
				4, 7, 3, 0, -1,
				7, 6, 2, 3, -1,
				6, 5, 1, 2, -1,
				5, 4, 0, 1, -1,
				4, 5, 6, 7, -1,
			]
			solid FALSE
		}
	}
#---------- SOLID: FR4_PV2:1
	Shape {
		appearance Appearance {
			material Material {
				diffuseColor 1 0 0
				transparency 0.7
			}
		}
		geometry IndexedFaceSet {
			coord Coordinate {
				point [
					-22.5 -22.5 -3.499,
					22.5 -22.5 -3.499,
					22.5 22.5 -3.499,
					-22.5 22.5 -3.499,
					-22.5 -22.5 -1.899,
					22.5 -22.5 -1.899,
					22.5 22.5 -1.899,
					-22.5 22.5 -1.899,
				]
			}
			coordIndex [
				0, 3, 2, 1, -1,
				4, 7, 3, 0, -1,
				7, 6, 2, 3, -1,
				6, 5, 1, 2, -1,
				5, 4, 0, 1, -1,
				4, 5, 6, 7, -1,
			]
			solid FALSE
		}
	}
#---------- SOLID: LYSO_PV:2
	Shape {
		appearance Appearance {
			material Material {
				diffuseColor 0 0 1
				transparency 0.7
			}
		}
		geometry IndexedFaceSet {
			coord Coordinate {
				point [
					-22.5 -22.5 27,
					22.5 -22.5 27,
					22.5 22.5 27,
					-22.5 22.5 27,
					-22.5 -22.5 33,
					22.5 -22.5 33,
					22.5 22.5 33,
					-22.5 22.5 33,
				]
			}
			coordIndex [
				0, 3, 2, 1, -1,
				4, 7, 3, 0, -1,
				7, 6, 2, 3, -1,
				6, 5, 1, 2, -1,
				5, 4, 0, 1, -1,
				4, 5, 6, 7, -1,
			]
			solid FALSE
		}
	}
#---------- SOLID: Si_PV3:2
	Shape {
		appearance Appearance {
			material Material {
				diffuseColor 0.8 0.8 0.8
				transparency 0.7
			}
		}
		geometry IndexedFaceSet {
			coord Coordinate {
				point [
					-22.5 -22.5 33,
					22.5 -22.5 33,
					22.5 22.5 33,
					-22.5 22.5 33,
					-22.5 -22.5 33.001,
					22.5 -22.5 33.001,
					22.5 22.5 33.001,
					-22.5 22.5 33.001,
				]
			}
			coordIndex [
				0, 3, 2, 1, -1,
				4, 7, 3, 0, -1,
				7, 6, 2, 3, -1,
				6, 5, 1, 2, -1,
				5, 4, 0, 1, -1,
				4, 5, 6, 7, -1,
			]
			solid FALSE
		}
	}
#---------- SOLID: FR4_PV3:2
	Shape {
		appearance Appearance {
			material Material {
				diffuseColor 1 0 0
				transparency 0.7
			}
		}
		geometry IndexedFaceSet {
			coord Coordinate {
				point [
					-22.5 -22.5 33.001,
					22.5 -22.5 33.001,
					22.5 22.5 33.001,
					-22.5 22.5 33.001,
					-22.5 -22.5 34.601,
					22.5 -22.5 34.601,
					22.5 22.5 34.601,
					-22.5 22.5 34.601,
				]
			}
			coordIndex [
				0, 3, 2, 1, -1,
				4, 7, 3, 0, -1,
				7, 6, 2, 3, -1,
				6, 5, 1, 2, -1,
				5, 4, 0, 1, -1,
				4, 5, 6, 7, -1,
			]
			solid FALSE
		}
	}
#---------- POLYLINE
Shape {
	appearance Appearance {
		material Material {
			diffuseColor 1 0 0
			emissiveColor 1 0 0
		}
	}
	geometry IndexedLineSet {
		coord Coordinate {
			point [
				0 0 -50,
				0 0 -31.5,
				0.000105454 -0.000171795 -30.5,
				0.0012063 -0.00181863 -29.5001,
				0.00592104 -0.0110892 -28.5002,
				0.00592255 -0.0110895 -28.5,
				0.00593243 -0.0110914 -28.499,
				0.0216932 -0.014123 -26.899,
				0.148541 -0.0630701 -6.5,
				0.154493 -0.0655505 -5.50005,
				0.167945 -0.0749969 -4.50022,
				0.176346 -0.0798226 -3.5003,
				0.176352 -0.0798229 -3.5,
				0.176369 -0.0798239 -3.499,
				0.204315 -0.081583 -1.899,
				0.756208 -0.19311 27,
				0.775659 -0.196979 27.9997,
				0.775123 -0.20543 28.9996,
				0.761737 -0.208 29.9994,
				0.728213 -0.191229 30.9986,
				0.682852 -0.158302 31.9213,
				0.628237 -0.108882 32.9184,
				0.623853 -0.104942 33,
				0.623802 -0.104893 33.001,
				0.541752 -0.026592 34.601,
				-2.56968 2.8163 100,
			]
		}
		coordIndex [
			0, 1, 2, 3, 4, 5, 6, 7, 8, 9, 
			10, 11, 12, 13, 14, 15, 16, 17, 18, 19, 
			20, 21, 22, 23, 24, 25, -1
		]
	}
}
#---------- 3D MARKER (Circle)
Anchor {
 description "(0  0  -50)"
 url "" 
 children [
  Transform {
   translation 0 0 -50
   children [
	Shape {
		appearance Appearance {
			material Material {
				diffuseColor 1 1 0
				emissiveColor 1 1 0
			}
		}
		geometry Sphere {
			radius 0.571548
		}
	}
   ]
  }
 ]
}
#---------- 3D MARKER (Circle)
Anchor {
 description "(0  0  -31.5)"
 url "" 
 children [
  Transform {
   translation 0 0 -31.5
   children [
	Shape {
		appearance Appearance {
			material Material {
				diffuseColor 1 1 0
				emissiveColor 1 1 0
			}
		}
		geometry Sphere {
			radius 0.571548
		}
	}
   ]
  }
 ]
}
#---------- 3D MARKER (Circle)
Anchor {
 description "(0.000105454  -0.000171795  -30.5)"
 url "" 
 children [
  Transform {
   translation 0.000105454 -0.000171795 -30.5
   children [
	Shape {
		appearance Appearance {
			material Material {
				diffuseColor 1 1 0
				emissiveColor 1 1 0
			}
		}
		geometry Sphere {
			radius 0.571548
		}
	}
   ]
  }
 ]
}
#---------- 3D MARKER (Circle)
Anchor {
 description "(0.0012063  -0.00181863  -29.5001)"
 url "" 
 children [
  Transform {
   translation 0.0012063 -0.00181863 -29.5001
   children [
	Shape {
		appearance Appearance {
			material Material {
				diffuseColor 1 1 0
				emissiveColor 1 1 0
			}
		}
		geometry Sphere {
			radius 0.571548
		}
	}
   ]
  }
 ]
}
#---------- 3D MARKER (Circle)
Anchor {
 description "(0.00592104  -0.0110892  -28.5002)"
 url "" 
 children [
  Transform {
   translation 0.00592104 -0.0110892 -28.5002
   children [
	Shape {
		appearance Appearance {
			material Material {
				diffuseColor 1 1 0
				emissiveColor 1 1 0
			}
		}
		geometry Sphere {
			radius 0.571548
		}
	}
   ]
  }
 ]
}
#---------- 3D MARKER (Circle)
Anchor {
 description "(0.00592255  -0.0110895  -28.5)"
 url "" 
 children [
  Transform {
   translation 0.00592255 -0.0110895 -28.5
   children [
	Shape {
		appearance Appearance {
			material Material {
				diffuseColor 1 1 0
				emissiveColor 1 1 0
			}
		}
		geometry Sphere {
			radius 0.571548
		}
	}
   ]
  }
 ]
}
#---------- 3D MARKER (Circle)
Anchor {
 description "(0.00593243  -0.0110914  -28.499)"
 url "" 
 children [
  Transform {
   translation 0.00593243 -0.0110914 -28.499
   children [
	Shape {
		appearance Appearance {
			material Material {
				diffuseColor 1 1 0
				emissiveColor 1 1 0
			}
		}
		geometry Sphere {
			radius 0.571548
		}
	}
   ]
  }
 ]
}
#---------- 3D MARKER (Circle)
Anchor {
 description "(0.0216932  -0.014123  -26.899)"
 url "" 
 children [
  Transform {
   translation 0.0216932 -0.014123 -26.899
   children [
	Shape {
		appearance Appearance {
			material Material {
				diffuseColor 1 1 0
				emissiveColor 1 1 0
			}
		}
		geometry Sphere {
			radius 0.571548
		}
	}
   ]
  }
 ]
}
#---------- 3D MARKER (Circle)
Anchor {
 description "(0.148541  -0.0630701  -6.5)"
 url "" 
 children [
  Transform {
   translation 0.148541 -0.0630701 -6.5
   children [
	Shape {
		appearance Appearance {
			material Material {
				diffuseColor 1 1 0
				emissiveColor 1 1 0
			}
		}
		geometry Sphere {
			radius 0.571548
		}
	}
   ]
  }
 ]
}
#---------- 3D MARKER (Circle)
Anchor {
 description "(0.154493  -0.0655505  -5.50005)"
 url "" 
 children [
  Transform {
   translation 0.154493 -0.0655505 -5.50005
   children [
	Shape {
		appearance Appearance {
			material Material {
				diffuseColor 1 1 0
				emissiveColor 1 1 0
			}
		}
		geometry Sphere {
			radius 0.571548
		}
	}
   ]
  }
 ]
}
#---------- 3D MARKER (Circle)
Anchor {
 description "(0.167945  -0.0749969  -4.50022)"
 url "" 
 children [
  Transform {
   translation 0.167945 -0.0749969 -4.50022
   children [
	Shape {
		appearance Appearance {
			material Material {
				diffuseColor 1 1 0
				emissiveColor 1 1 0
			}
		}
		geometry Sphere {
			radius 0.571548
		}
	}
   ]
  }
 ]
}
#---------- 3D MARKER (Circle)
Anchor {
 description "(0.176346  -0.0798226  -3.5003)"
 url "" 
 children [
  Transform {
   translation 0.176346 -0.0798226 -3.5003
   children [
	Shape {
		appearance Appearance {
			material Material {
				diffuseColor 1 1 0
				emissiveColor 1 1 0
			}
		}
		geometry Sphere {
			radius 0.571548
		}
	}
   ]
  }
 ]
}
#---------- 3D MARKER (Circle)
Anchor {
 description "(0.176352  -0.0798229  -3.5)"
 url "" 
 children [
  Transform {
   translation 0.176352 -0.0798229 -3.5
   children [
	Shape {
		appearance Appearance {
			material Material {
				diffuseColor 1 1 0
				emissiveColor 1 1 0
			}
		}
		geometry Sphere {
			radius 0.571548
		}
	}
   ]
  }
 ]
}
#---------- 3D MARKER (Circle)
Anchor {
 description "(0.176369  -0.0798239  -3.499)"
 url "" 
 children [
  Transform {
   translation 0.176369 -0.0798239 -3.499
   children [
	Shape {
		appearance Appearance {
			material Material {
				diffuseColor 1 1 0
				emissiveColor 1 1 0
			}
		}
		geometry Sphere {
			radius 0.571548
		}
	}
   ]
  }
 ]
}
#---------- 3D MARKER (Circle)
Anchor {
 description "(0.204315  -0.081583  -1.899)"
 url "" 
 children [
  Transform {
   translation 0.204315 -0.081583 -1.899
   children [
	Shape {
		appearance Appearance {
			material Material {
				diffuseColor 1 1 0
				emissiveColor 1 1 0
			}
		}
		geometry Sphere {
			radius 0.571548
		}
	}
   ]
  }
 ]
}
#---------- 3D MARKER (Circle)
Anchor {
 description "(0.756208  -0.19311  27)"
 url "" 
 children [
  Transform {
   translation 0.756208 -0.19311 27
   children [
	Shape {
		appearance Appearance {
			material Material {
				diffuseColor 1 1 0
				emissiveColor 1 1 0
			}
		}
		geometry Sphere {
			radius 0.571548
		}
	}
   ]
  }
 ]
}
#---------- 3D MARKER (Circle)
Anchor {
 description "(0.775659  -0.196979  27.9997)"
 url "" 
 children [
  Transform {
   translation 0.775659 -0.196979 27.9997
   children [
	Shape {
		appearance Appearance {
			material Material {
				diffuseColor 1 1 0
				emissiveColor 1 1 0
			}
		}
		geometry Sphere {
			radius 0.571548
		}
	}
   ]
  }
 ]
}
#---------- 3D MARKER (Circle)
Anchor {
 description "(0.775123  -0.20543  28.9996)"
 url "" 
 children [
  Transform {
   translation 0.775123 -0.20543 28.9996
   children [
	Shape {
		appearance Appearance {
			material Material {
				diffuseColor 1 1 0
				emissiveColor 1 1 0
			}
		}
		geometry Sphere {
			radius 0.571548
		}
	}
   ]
  }
 ]
}
#---------- 3D MARKER (Circle)
Anchor {
 description "(0.761737  -0.208  29.9994)"
 url "" 
 children [
  Transform {
   translation 0.761737 -0.208 29.9994
   children [
	Shape {
		appearance Appearance {
			material Material {
				diffuseColor 1 1 0
				emissiveColor 1 1 0
			}
		}
		geometry Sphere {
			radius 0.571548
		}
	}
   ]
  }
 ]
}
#---------- 3D MARKER (Circle)
Anchor {
 description "(0.728213  -0.191229  30.9986)"
 url "" 
 children [
  Transform {
   translation 0.728213 -0.191229 30.9986
   children [
	Shape {
		appearance Appearance {
			material Material {
				diffuseColor 1 1 0
				emissiveColor 1 1 0
			}
		}
		geometry Sphere {
			radius 0.571548
		}
	}
   ]
  }
 ]
}
#---------- 3D MARKER (Circle)
Anchor {
 description "(0.682852  -0.158302  31.9213)"
 url "" 
 children [
  Transform {
   translation 0.682852 -0.158302 31.9213
   children [
	Shape {
		appearance Appearance {
			material Material {
				diffuseColor 1 1 0
				emissiveColor 1 1 0
			}
		}
		geometry Sphere {
			radius 0.571548
		}
	}
   ]
  }
 ]
}
#---------- 3D MARKER (Circle)
Anchor {
 description "(0.628237  -0.108882  32.9184)"
 url "" 
 children [
  Transform {
   translation 0.628237 -0.108882 32.9184
   children [
	Shape {
		appearance Appearance {
			material Material {
				diffuseColor 1 1 0
				emissiveColor 1 1 0
			}
		}
		geometry Sphere {
			radius 0.571548
		}
	}
   ]
  }
 ]
}
#---------- 3D MARKER (Circle)
Anchor {
 description "(0.623853  -0.104942  33)"
 url "" 
 children [
  Transform {
   translation 0.623853 -0.104942 33
   children [
	Shape {
		appearance Appearance {
			material Material {
				diffuseColor 1 1 0
				emissiveColor 1 1 0
			}
		}
		geometry Sphere {
			radius 0.571548
		}
	}
   ]
  }
 ]
}
#---------- 3D MARKER (Circle)
Anchor {
 description "(0.623802  -0.104893  33.001)"
 url "" 
 children [
  Transform {
   translation 0.623802 -0.104893 33.001
   children [
	Shape {
		appearance Appearance {
			material Material {
				diffuseColor 1 1 0
				emissiveColor 1 1 0
			}
		}
		geometry Sphere {
			radius 0.571548
		}
	}
   ]
  }
 ]
}
#---------- 3D MARKER (Circle)
Anchor {
 description "(0.541752  -0.026592  34.601)"
 url "" 
 children [
  Transform {
   translation 0.541752 -0.026592 34.601
   children [
	Shape {
		appearance Appearance {
			material Material {
				diffuseColor 1 1 0
				emissiveColor 1 1 0
			}
		}
		geometry Sphere {
			radius 0.571548
		}
	}
   ]
  }
 ]
}
#---------- 3D MARKER (Circle)
Anchor {
 description "(-2.56968  2.8163  100)"
 url "" 
 children [
  Transform {
   translation -2.56968 2.8163 100
   children [
	Shape {
		appearance Appearance {
			material Material {
				diffuseColor 1 1 0
				emissiveColor 1 1 0
			}
		}
		geometry Sphere {
			radius 0.571548
		}
	}
   ]
  }
 ]
}
#---------- 3D MARKER (Circle)
Anchor {
 description "(0  0  -31.5)"
 url "" 
 children [
  Transform {
   translation 0 0 -31.5
   children [
	Shape {
		appearance Appearance {
			material Material {
				diffuseColor 1 0 0
				emissiveColor 1 0 0
			}
		}
		geometry Sphere {
			radius 1.1431
		}
	}
   ]
  }
 ]
}
#---------- 3D MARKER (Circle)
Anchor {
 description "(0.000105454  -0.000171795  -30.5)"
 url "" 
 children [
  Transform {
   translation 0.000105454 -0.000171795 -30.5
   children [
	Shape {
		appearance Appearance {
			material Material {
				diffuseColor 1 0 0
				emissiveColor 1 0 0
			}
		}
		geometry Sphere {
			radius 1.1431
		}
	}
   ]
  }
 ]
}
#---------- 3D MARKER (Circle)
Anchor {
 description "(0.0012063  -0.00181863  -29.5001)"
 url "" 
 children [
  Transform {
   translation 0.0012063 -0.00181863 -29.5001
   children [
	Shape {
		appearance Appearance {
			material Material {
				diffuseColor 1 0 0
				emissiveColor 1 0 0
			}
		}
		geometry Sphere {
			radius 1.1431
		}
	}
   ]
  }
 ]
}
#---------- 3D MARKER (Circle)
Anchor {
 description "(0.148541  -0.0630701  -6.5)"
 url "" 
 children [
  Transform {
   translation 0.148541 -0.0630701 -6.5
   children [
	Shape {
		appearance Appearance {
			material Material {
				diffuseColor 1 0 0
				emissiveColor 1 0 0
			}
		}
		geometry Sphere {
			radius 1.1431
		}
	}
   ]
  }
 ]
}
#---------- 3D MARKER (Circle)
Anchor {
 description "(0.154493  -0.0655505  -5.50005)"
 url "" 
 children [
  Transform {
   translation 0.154493 -0.0655505 -5.50005
   children [
	Shape {
		appearance Appearance {
			material Material {
				diffuseColor 1 0 0
				emissiveColor 1 0 0
			}
		}
		geometry Sphere {
			radius 1.1431
		}
	}
   ]
  }
 ]
}
#---------- 3D MARKER (Circle)
Anchor {
 description "(0.167945  -0.0749969  -4.50022)"
 url "" 
 children [
  Transform {
   translation 0.167945 -0.0749969 -4.50022
   children [
	Shape {
		appearance Appearance {
			material Material {
				diffuseColor 1 0 0
				emissiveColor 1 0 0
			}
		}
		geometry Sphere {
			radius 1.1431
		}
	}
   ]
  }
 ]
}
#---------- 3D MARKER (Circle)
Anchor {
 description "(0.756208  -0.19311  27)"
 url "" 
 children [
  Transform {
   translation 0.756208 -0.19311 27
   children [
	Shape {
		appearance Appearance {
			material Material {
				diffuseColor 1 0 0
				emissiveColor 1 0 0
			}
		}
		geometry Sphere {
			radius 1.1431
		}
	}
   ]
  }
 ]
}
#---------- 3D MARKER (Circle)
Anchor {
 description "(0.775659  -0.196979  27.9997)"
 url "" 
 children [
  Transform {
   translation 0.775659 -0.196979 27.9997
   children [
	Shape {
		appearance Appearance {
			material Material {
				diffuseColor 1 0 0
				emissiveColor 1 0 0
			}
		}
		geometry Sphere {
			radius 1.1431
		}
	}
   ]
  }
 ]
}
#---------- 3D MARKER (Circle)
Anchor {
 description "(0.775123  -0.20543  28.9996)"
 url "" 
 children [
  Transform {
   translation 0.775123 -0.20543 28.9996
   children [
	Shape {
		appearance Appearance {
			material Material {
				diffuseColor 1 0 0
				emissiveColor 1 0 0
			}
		}
		geometry Sphere {
			radius 1.1431
		}
	}
   ]
  }
 ]
}
#---------- 3D MARKER (Circle)
Anchor {
 description "(0.761737  -0.208  29.9994)"
 url "" 
 children [
  Transform {
   translation 0.761737 -0.208 29.9994
   children [
	Shape {
		appearance Appearance {
			material Material {
				diffuseColor 1 0 0
				emissiveColor 1 0 0
			}
		}
		geometry Sphere {
			radius 1.1431
		}
	}
   ]
  }
 ]
}
#---------- 3D MARKER (Circle)
Anchor {
 description "(0.728213  -0.191229  30.9986)"
 url "" 
 children [
  Transform {
   translation 0.728213 -0.191229 30.9986
   children [
	Shape {
		appearance Appearance {
			material Material {
				diffuseColor 1 0 0
				emissiveColor 1 0 0
			}
		}
		geometry Sphere {
			radius 1.1431
		}
	}
   ]
  }
 ]
}
#---------- 3D MARKER (Circle)
Anchor {
 description "(0.682852  -0.158302  31.9213)"
 url "" 
 children [
  Transform {
   translation 0.682852 -0.158302 31.9213
   children [
	Shape {
		appearance Appearance {
			material Material {
				diffuseColor 1 0 0
				emissiveColor 1 0 0
			}
		}
		geometry Sphere {
			radius 1.1431
		}
	}
   ]
  }
 ]
}
#End of file.
